<?xml version="1.0" encoding="UTF-8"?>
<svg width="286px" height="191px" viewBox="0 0 286 191" version="1.1" xmlns="http://www.w3.org/2000/svg" xmlns:xlink="http://www.w3.org/1999/xlink">
    <title>card-svg</title>
    <g id="Page-1" stroke="none" stroke-width="1" fill="none" fill-rule="evenodd">
        <g id="Desktop" transform="translate(-304.000000, -375.000000)">
            <g id="card-svg" transform="translate(304.000000, 375.000000)">
                <rect id="Rectangle" fill="#E6F0E8" x="0" y="0" width="286" height="191"></rect>
                <g id="basketball" transform="translate(97.000000, 50.000000)" fill="#8FBC98" fill-rule="nonzero">
                    <path d="M46,0 C20.6,0 0,20.6 0,46 C0,71.4 20.6,92 46,92 C71.4,92 92,71.4 92,46 C92,20.6 71.4,0 46,0 Z M75,70.5 C72.4,68.1 68.1,63.1 66.5,55.4 C74.3,54.3 79.9,52.7 83.6,51.4 C82.6,58.5 79.5,65.1 75,70.5 Z M8.4,51.3 C12.1,52.6 17.7,54.2 25.5,55.3 C24,63 19.6,68.1 17,70.4 C12.5,65.1 9.4,58.5 8.4,51.3 Z M14.7,24.4 C17.9,27.8 24.8,36.4 25.8,47.3 C16.1,45.8 10.4,43.6 8.1,42.6 C8.8,35.9 11.1,29.7 14.7,24.4 Z M83.8,42.6 C81.5,43.6 75.9,45.9 66.1,47.3 C67.1,36.5 74.1,27.8 77.2,24.4 C80.9,29.7 83.2,35.9 83.8,42.6 Z M58.1,48.2 C55.6,48.4 52.9,48.5 50,48.6 L50,8.2 C58.5,9.1 66.1,12.8 72,18.3 C68.3,22.2 58.7,33.5 58.1,48.2 Z M42,48.7 C39.1,48.6 36.4,48.5 33.9,48.3 C33.2,33.5 23.6,22.3 19.9,18.4 C25.8,12.9 33.4,9.2 41.9,8.3 L41.9,48.7 L42,48.7 Z M33.4,56.2 C36.1,56.4 38.9,56.6 42,56.6 L42,83.7 C34.8,83 28.2,80.2 22.7,76 C26.3,72.6 31.7,66.1 33.4,56.2 Z M50,56.7 C53,56.6 55.9,56.5 58.6,56.3 C60.4,66.1 65.7,72.7 69.3,76.1 C63.9,80.3 57.2,83.1 50,83.9 L50,56.7 Z" id="XMLID_2075_"></path>
                </g>
            </g>
        </g>
    </g>
</svg>