<?xml version="1.0" encoding="UTF-8"?>
<svg width="16px" height="16px" viewBox="0 0 16 16" version="1.1" xmlns="http://www.w3.org/2000/svg" xmlns:xlink="http://www.w3.org/1999/xlink">
    <g id="UI-Exercise" stroke="none" stroke-width="1" fill="none" fill-rule="evenodd">
        <g id="Anatomy-of-card" transform="translate(-95.000000, -595.000000)" fill="#2A2941">
            <g id="Card-1---menu-closed" transform="translate(70.000000, 235.000000)">
                <g id="Favourite" transform="translate(24.000000, 359.000000)">
                    <path d="M12.9311231,16.1006524 C12.8153862,16.1006524 12.6978957,16.0713122 12.5891732,16.0126316 L8.99782183,14.037664 C8.98905388,14.0321627 8.97677875,14.0321627 8.96801081,14.037664 L5.37665945,16.0126316 C5.12764973,16.1501642 4.8312931,16.1263252 4.60508005,15.953951 C4.37886701,15.7815769 4.26663728,15.4936754 4.31398419,15.2039401 L4.9996377,11.0211164 C5.00139129,11.0101137 4.99788411,10.9991111 4.99086975,10.9917761 L2.0851719,8.03024149 C1.8835091,7.82485953 1.81336552,7.52412165 1.89929141,7.24538898 C1.98697089,6.96665632 2.21318394,6.76677565 2.49025108,6.724599 L6.50597111,6.11395441 C6.51649264,6.11212064 6.52526059,6.10661934 6.52876777,6.09561673 L8.32444345,2.29054909 C8.44894831,2.02648656 8.69971161,1.86328125 8.98203952,1.86328125 C9.26436744,1.86328125 9.51513074,2.02648656 9.6396356,2.29054909 L11.4353113,6.09561673 C11.440572,6.10478557 11.44934,6.11212064 11.4581079,6.11395441 L15.473828,6.724599 C15.7526487,6.76677565 15.9788617,6.96665632 16.0647876,7.24538898 C16.1524671,7.52412165 16.0805699,7.82485953 15.8789071,8.03024149 L12.9767165,10.9936098 C12.9697021,11.0009449 12.9661949,11.0119475 12.9679485,11.0229501 L13.653602,15.2057739 C13.7009489,15.4955092 13.5887192,15.7815769 13.3625062,15.9557848 C13.2344941,16.0511407 13.0836854,16.1006524 12.9311231,16.1006524 Z M9.01789904,12.5829965 C9.11412043,12.5829965 9.20890568,12.606984 9.29651023,12.6549592 L12.2391613,14.2696225 C12.2449059,14.2726209 12.2535227,14.2771186 12.266448,14.2681232 C12.2793733,14.2591279 12.2779371,14.2486333 12.276501,14.2426364 L11.7135341,10.8214093 C11.6805028,10.6190142 11.7451291,10.4106222 11.8858709,10.2666968 L14.2655551,7.84545148 C14.2698635,7.84095381 14.2770442,7.8334577 14.2712996,7.81846547 C14.2655551,7.80347324 14.2569382,7.80047479 14.2511937,7.80047479 L10.9624328,7.3012335 C10.7671177,7.27124904 10.5976532,7.14381507 10.5100486,6.95791141 L9.04087728,3.84702348 L9.04087728,3.84702348 C9.038005,3.84102659 9.03369658,3.83203125 9.01789904,3.83203125 C9.0021015,3.83203125 8.99779308,3.84102659 8.9949208,3.84702348 L7.52431331,6.95791141 C7.43670877,7.14231585 7.26724423,7.27124904 7.07192917,7.3012335 L3.78316829,7.80047479 C3.77742373,7.80197401 3.76737075,7.80347324 3.76306233,7.81846547 C3.75875391,7.8334577 3.76593461,7.84095381 3.76880689,7.84545148 L6.14849107,10.2666968 C6.29066895,10.4106222 6.35529525,10.617515 6.32082789,10.8214093 L5.7592971,14.2411372 C5.75786096,14.2471341 5.75642482,14.2576287 5.76935008,14.266624 C5.78227534,14.2756193 5.79089218,14.2711217 5.79663674,14.2681232 L8.73785172,12.65346 C8.82545627,12.606984 8.92167765,12.5829965 9.01789904,12.5829965 Z" id="Shape"></path>
                </g>
            </g>
        </g>
    </g>
</svg>